HIERARCHY
ROOT Hips
{
 OFFSET 0.000000 0.000000 0.000000
 CHANNELS 6 Xposition Yposition Zposition Yrotation Xrotation Zrotation
 JOINT Chest
 {
  OFFSET 0.000000 9.585900 0.002600
  CHANNELS 3 Yrotation Xrotation Zrotation
  JOINT Chest2
  {
   OFFSET 0.000000 9.601200 -0.005300
   CHANNELS 3 Yrotation Xrotation Zrotation
   JOINT Chest3
   {
    OFFSET 0.000000 9.561800 0.000000
    CHANNELS 3 Yrotation Xrotation Zrotation
    JOINT Chest4
    {
     OFFSET 0.000000 9.552100 0.000000
     CHANNELS 3 Yrotation Xrotation Zrotation
     JOINT Neck
     {
      OFFSET 0.000000 14.453000 0.000000
      CHANNELS 3 Yrotation Xrotation Zrotation
      JOINT Head
      {
       OFFSET 0.000000 8.936500 -0.011300
       CHANNELS 3 Yrotation Xrotation Zrotation
       End Site
       {
        OFFSET 0.000000 17.073600 -0.006000
       }
      }
     }
     JOINT RightCollar
     {
      OFFSET -2.921100 9.558500 0.000000
      CHANNELS 3 Yrotation Xrotation Zrotation
      JOINT RightShoulder
      {
       OFFSET -13.519700 0.000000 0.000000
       CHANNELS 3 Yrotation Xrotation Zrotation
       JOINT RightElbow
       {
        OFFSET 0.000000 -29.696600 0.000000
        CHANNELS 3 Yrotation Xrotation Zrotation
        JOINT RightWrist
        {
         OFFSET 0.000000 -24.004700 0.000000
         CHANNELS 3 Yrotation Xrotation Zrotation
         End Site
         {
          OFFSET 0.000000 -17.728500 0.000000
         }
        }
       }
      }
     }
     JOINT LeftCollar
     {
      OFFSET 2.921100 9.558500 0.000000
      CHANNELS 3 Yrotation Xrotation Zrotation
      JOINT LeftShoulder
      {
       OFFSET 13.519700 0.000000 0.000000
       CHANNELS 3 Yrotation Xrotation Zrotation
       JOINT LeftElbow
       {
        OFFSET 0.000000 -29.696600 0.000000
        CHANNELS 3 Yrotation Xrotation Zrotation
        JOINT LeftWrist
        {
         OFFSET 0.000000 -24.004700 0.000000
         CHANNELS 3 Yrotation Xrotation Zrotation
         End Site
         {
          OFFSET 0.000000 -17.728500 0.000000
         }
        }
       }
      }
     }
    }
   }
  }
 }
 JOINT RightHip
 {
  OFFSET -7.771700 -0.012900 -0.001300
  CHANNELS 3 Yrotation Xrotation Zrotation
  JOINT RightKnee
  {
   OFFSET 0.000000 -40.869800 0.001200
   CHANNELS 3 Yrotation Xrotation Zrotation
   JOINT RightAnkle
   {
    OFFSET 0.000000 -39.717900 0.002100
    CHANNELS 3 Yrotation Xrotation Zrotation
    JOINT RightToe
    {
     OFFSET 0.000000 -4.965400 11.033500
     CHANNELS 3 Yrotation Xrotation Zrotation
     End Site
     {
      OFFSET 0.000000 -1.423100 5.872300
     }
    }
   }
  }
 }
 JOINT LeftHip
 {
  OFFSET 7.771700 -0.012900 -0.001300
  CHANNELS 3 Yrotation Xrotation Zrotation
  JOINT LeftKnee
  {
   OFFSET 0.000000 -40.869800 0.001200
   CHANNELS 3 Yrotation Xrotation Zrotation
   JOINT LeftAnkle
   {
    OFFSET 0.000000 -39.717900 0.002100
    CHANNELS 3 Yrotation Xrotation Zrotation
    JOINT LeftToe
    {
     OFFSET 0.000000 -4.965400 11.033500
     CHANNELS 3 Yrotation Xrotation Zrotation
     End Site
     {
      OFFSET 0.000000 -1.423100 5.872300
     }
    }
   }
  }
 }
}
MOTION
Frames: 12
Frame Time: 0.008333
-9.626107 55.933853 19.448049 -174.858047 -36.560555 -12.206531 -2.496432 12.725629 6.033333 -1.031796 7.300276 1.894263 -1.310809 9.115920 2.376533 -1.058070 7.294063 1.903776 1.822712 20.228350 -1.175425 2.182084 -4.164619 -1.601983 6.590515 -2.775724 -1.439415 2.637834 -25.900109 2.172981 43.902180 -21.176547 -23.872433 9.589687 5.524973 -23.134842 -13.419977 -2.309285 -5.221635 -12.593522 -23.363113 3.330028 -45.149459 -16.976795 32.481543 2.774887 -4.524843 10.679923 -17.325833 -23.295511 5.383883 55.641015 87.602125 53.823903 1.850624 -25.332231 -1.956843 -0.618499 2.021297 -0.282849 -11.823225 -39.947583 10.338135 172.653321 73.642363 171.072025 -0.404426 -22.361815 0.547238 -1.058049 -2.845712 -0.465392
-9.625108 55.932551 19.457437 -174.879597 -36.561261 -12.208311 -2.503609 12.722565 6.047635 -1.030551 7.297215 1.899683 -1.322502 9.117467 2.374308 -1.051896 7.293472 1.901488 1.812696 20.341026 -1.123876 2.184694 -4.080541 -1.586290 6.575205 -2.720028 -1.419670 2.545010 -25.869916 2.249154 44.083362 -21.240422 -24.042566 9.600765 5.539136 -23.103489 -13.395367 -2.291114 -5.219739 -12.542865 -23.297371 3.296643 -45.216468 -17.056980 32.571392 2.776221 -4.496993 10.651971 -17.310847 -23.303875 5.407898 55.497883 87.599725 53.672363 1.844796 -25.322572 -1.944727 -0.620851 2.024740 -0.282425 -11.795829 -39.961117 10.342101 172.623537 73.640101 171.064953 -0.382545 -22.339005 0.540586 -1.076181 -2.859939 -0.473474
-9.633984 55.934839 19.458773 -174.874566 -36.614349 -12.173910 -2.535698 12.776616 6.003373 -1.032120 7.292088 1.902337 -1.332201 9.123765 2.371741 -1.024151 7.292179 1.892688 1.787570 20.448519 -1.061806 2.191694 -4.001693 -1.568914 6.551936 -2.675706 -1.406100 2.439543 -25.832317 2.349136 44.261954 -21.275446 -24.181072 9.605760 5.531240 -23.109346 -13.385111 -2.278185 -5.202125 -12.498354 -23.225729 3.258952 -45.290421 -17.135519 32.669277 2.787024 -4.466549 10.623696 -17.282232 -23.305665 5.375894 56.173635 87.647979 54.365848 1.681234 -25.209755 -1.957589 -0.466586 1.895768 -0.211470 -11.716752 -39.935227 10.266251 172.610242 73.637527 171.078617 -0.417723 -22.262610 0.541481 -1.046531 -2.925313 -0.459114
-9.636420 55.931919 19.467520 -174.899784 -36.613189 -12.158029 -2.531759 12.773703 6.000471 -1.087339 7.300806 1.904871 -1.306023 9.125382 2.363051 -1.025913 7.284626 1.896285 1.793274 20.539058 -1.029510 2.196549 -3.909384 -1.533076 6.558684 -2.629132 -1.409965 2.352976 -25.795971 2.448610 44.430494 -21.308870 -24.323127 9.617260 5.530870 -23.090293 -13.340032 -2.262868 -5.191933 -12.456636 -23.162644 3.215759 -45.358396 -17.206638 32.763874 2.795022 -4.440994 10.593911 -17.263092 -23.325356 5.379125 56.182251 87.652695 54.370290 1.670721 -25.200007 -1.952401 -0.465233 1.891149 -0.207371 -11.691985 -39.947574 10.273955 172.633740 73.641291 171.102203 -0.425306 -22.250864 0.548818 -1.042364 -2.927873 -0.459010
-9.640675 55.926347 19.477927 -174.918286 -36.590194 -12.133359 -2.540326 12.751004 5.984546 -1.107328 7.315905 1.905657 -1.315971 9.129567 2.361302 -1.028259 7.273404 1.892855 1.819160 20.579699 -1.016665 2.187295 -3.772333 -1.460235 6.563155 -2.587156 -1.404117 2.296034 -25.765023 2.533031 44.594167 -21.363658 -24.497868 9.641712 5.553142 -23.033926 -13.306572 -2.247680 -5.175069 -12.403146 -23.111944 3.175278 -45.409585 -17.264558 32.838192 2.787326 -4.421465 10.562914 -17.256592 -23.376420 5.377259 56.205414 87.674708 54.386497 1.667090 -25.175963 -1.947575 -0.453029 1.872696 -0.200159 -11.677166 -39.987424 10.280379 172.641586 73.643230 171.100655 -0.449295 -22.230623 0.564903 -1.032464 -2.931956 -0.459420
-9.650019 55.922255 19.483662 -174.989342 -36.600489 -12.046317 -2.517260 12.764359 5.937485 -1.117863 7.327871 1.903496 -1.327624 9.134538 2.360059 -1.033830 7.269144 1.890657 1.825920 20.688961 -0.961689 2.206589 -3.708363 -1.441073 6.562871 -2.558534 -1.397116 2.266205 -25.744175 2.599575 44.756439 -21.413602 -24.664360 9.645425 5.586247 -22.973527 -13.280915 -2.162672 -5.152105 -12.355062 -23.159243 3.154154 -45.493308 -17.334561 32.928580 2.800236 -4.370359 10.517712 -17.196959 -23.468746 5.356301 57.402703 87.737376 55.593700 1.528537 -24.982331 -1.959755 -0.321903 1.677086 -0.140710 -11.588164 -40.005256 10.240284 172.663562 73.647193 171.110529 -0.495652 -22.173123 0.574705 -0.999132 -2.976889 -0.442384
-9.651937 55.917910 19.490353 -175.000327 -36.583215 -12.035950 -2.539397 12.769784 5.929857 -1.126258 7.342115 1.904676 -1.340496 9.140144 2.359234 -1.041481 7.261413 1.889015 1.840197 20.809101 -0.904298 2.232626 -3.639177 -1.421980 6.553898 -2.534089 -1.388765 2.251179 -25.732517 2.654854 44.932070 -21.457127 -24.826087 9.685567 5.603714 -22.944639 -13.238658 -2.110159 -5.150186 -12.323866 -23.190021 3.155034 -45.550248 -17.385694 33.013191 2.833120 -4.347605 10.480741 -17.202957 -23.498778 5.358368 57.544414 87.738031 55.726271 1.524007 -24.978265 -1.956946 -0.318943 1.678255 -0.140175 -11.589746 -40.030334 10.255417 172.690674 73.648723 171.129307 -0.505050 -22.168806 0.582461 -0.995433 -2.972484 -0.442242
-9.652955 55.914942 19.494274 -175.010858 -36.573977 -12.028252 -2.555585 12.794162 5.928908 -1.139494 7.352299 1.901947 -1.354964 9.146809 2.358463 -1.047288 7.259851 1.888862 1.867871 20.908716 -0.859403 2.258939 -3.531808 -1.382861 6.537168 -2.518264 -1.380355 2.268804 -25.745202 2.682232 45.140792 -21.519672 -25.022661 9.703043 5.654521 -22.882714 -13.190052 -2.046300 -5.142919 -12.311535 -23.278003 3.162264 -45.579071 -17.469409 33.084768 2.825308 -4.284434 10.431537 -17.201750 -23.519477 5.357472 57.597701 87.746984 55.778575 1.522098 -24.969256 -1.956261 -0.308753 1.672928 -0.137511 -11.586975 -40.044466 10.263119 172.704386 73.648482 171.141448 -0.504817 -22.167368 0.583778 -0.993502 -2.964620 -0.443653
-9.654748 55.911817 19.497104 -175.018196 -36.558573 -12.013481 -2.579019 12.818172 5.915041 -1.131855 7.337048 1.901967 -1.362667 9.150458 2.358010 -1.083201 7.285920 1.895276 1.903963 21.024887 -0.811527 2.292330 -3.407102 -1.340985 6.516407 -2.497939 -1.368746 2.346150 -25.798138 2.662076 45.262503 -21.555182 -25.150136 9.716795 5.682906 -22.840334 -13.128956 -1.959302 -5.130621 -12.242208 -23.390883 3.156875 -45.624230 -17.563943 33.132600 2.790836 -4.246063 10.387596 -17.213123 -23.546424 5.350797 57.692731 87.756888 55.863280 1.526155 -24.963722 -1.957064 -0.303419 1.667828 -0.136424 -11.582386 -40.061170 10.272476 172.751241 73.654419 171.177425 -0.520676 -22.176714 0.594541 -0.983945 -2.950851 -0.440027
-9.656426 55.905602 19.503002 -175.037987 -36.508510 -11.985653 -2.616645 12.844943 5.898800 -1.132136 7.324897 1.900509 -1.344620 9.116443 2.351671 -1.171284 7.370438 1.909009 1.995146 21.105477 -0.776638 2.327722 -3.263984 -1.295498 6.544808 -2.525149 -1.371287 2.302946 -25.791651 2.741670 45.482549 -21.578893 -25.300572 9.759040 5.682043 -22.849722 -13.007307 -1.903700 -5.118182 -12.149424 -23.548443 3.135492 -45.692573 -17.637983 33.168233 2.847711 -4.194620 10.332022 -17.223573 -23.613570 5.348945 57.927226 87.765003 56.090839 1.526826 -24.965025 -1.959908 -0.300176 1.671083 -0.135746 -11.568968 -40.116375 10.274219 172.774100 73.661242 171.200009 -0.535085 -22.195246 0.598351 -0.973889 -2.924663 -0.434868
-9.660655 55.902641 19.502859 -175.035110 -36.487787 -11.954497 -2.636055 12.835373 5.865821 -1.163631 7.376014 1.906365 -1.386814 9.160302 2.353407 -1.157089 7.351699 1.902861 2.048363 21.226461 -0.727458 2.357752 -3.104978 -1.246034 6.521225 -2.522568 -1.353833 2.288882 -25.815129 2.781125 45.727753 -21.628527 -25.492419 9.764067 5.724487 -22.796590 -12.931830 -1.798196 -5.104500 -12.066650 -23.731294 3.104123 -45.762745 -17.699404 33.219108 2.816722 -4.158187 10.279448 -17.235493 -23.646990 5.319340 58.225188 87.771027 56.375019 1.523038 -24.974383 -1.957179 -0.297390 1.673705 -0.135181 -11.542181 -40.134196 10.245440 172.820071 73.668003 171.240683 -0.556053 -22.235073 0.610464 -0.956319 -2.887682 -0.427390
-9.662529 55.901582 19.499646 -175.043826 -36.482317 -11.928440 -2.651076 12.870554 5.849654 -1.161176 7.378516 1.906313 -1.404374 9.185583 2.357157 -1.143454 7.316355 1.893668 2.070488 21.398533 -0.660733 2.376034 -2.936633 -1.191747 6.453357 -2.471086 -1.308764 2.290303 -25.846862 2.797238 45.948102 -21.688457 -25.673939 9.774597 5.771503 -22.734821 -12.902984 -1.628958 -5.090934 -11.978524 -23.917853 3.062155 -45.866020 -17.728693 33.269049 2.812676 -4.136971 10.247016 -17.235050 -23.661718 5.297415 58.430892 87.777470 56.571698 1.524076 -24.980259 -1.958282 -0.292482 1.673225 -0.133602 -11.504346 -40.130475 10.227599 172.873442 73.681146 171.292614 -0.570928 -22.274988 0.624618 -0.944975 -2.852895 -0.423488
